<svg width="232" height="57" xmlns="http://www.w3.org/2000/svg" xmlns:xlink="http://www.w3.org/1999/xlink" xml:space="preserve" overflow="hidden"><g transform="translate(-97 -455)"><path d="M13.4061 19.5727C9.09709 19.8751 4.098 18.9979 0.885709 15.8941 0.854961 15.8642 0.856669 15.8368 0.891688 15.8112L3.53259 13.8972C3.56333 13.875 3.59237 13.8767 3.6197 13.9032 6.17263 16.3536 10.3543 16.948 13.7059 16.5389 15.1296 16.3647 17.4016 15.7591 17.5493 13.9817 17.6928 12.2487 15.9624 11.7824 14.6326 11.5757 13.5273 11.4049 12.2872 11.3118 11.1102 11.2409 9.76671 11.1598 8.46249 11.018 7.19756 10.8138 6.63043 10.7225 6.03939 10.5764 5.42358 10.3757 4.67453 10.1306 4.01601 9.69924 3.44974 9.08086 2.57855 8.12939 2.2779 6.81406 2.40516 5.53205 2.70496 2.52132 5.34158 1.08215 8.0286 0.645705 10.3065 0.275022 12.5921 0.309187 14.8854 0.747343 17.03 1.15731 19.3037 2.11477 20.8308 3.70939 20.8522 3.73159 20.8513 3.76661 20.8291 3.78796 20.8257 3.79138 20.8223 3.79394 20.8189 3.7965L18.1404 5.42956C18.1148 5.44493 18.0814 5.44322 18.0575 5.42529 16.3937 4.15267 14.2866 3.53088 12.1787 3.39764 10.9556 3.31991 9.67191 3.36433 8.45651 3.61543 7.4145 3.83152 5.99583 4.41317 5.8959 5.64052 5.8122 6.65776 6.49292 7.23001 7.39486 7.49479 7.88255 7.63828 8.50007 7.75871 9.24741 7.85607 11.3938 8.13537 13.7537 8.25665 15.8129 8.4958 16.2357 8.54449 16.6969 8.63246 17.1966 8.75887 18.1745 9.0057 18.9672 9.40713 19.6615 10.1408 20.4413 10.9659 20.8616 11.9848 20.9239 13.1985 21.1528 17.6706 17.1325 19.3114 13.4061 19.5727Z" transform="matrix(1 0 0 2.63364 97.1823 455)"/><path d="M29.2873 11.041C28.1761 10.9309 27.1367 10.7404 26.1673 10.4696 25.3858 10.2518 24.7008 9.85639 24.1123 9.28414 23.1788 8.37879 22.7961 7.1651 22.8508 5.86942 22.9951 2.43079 25.9853 0.963432 29.0174 0.563711 31.0775 0.292105 33.1325 0.342497 35.1824 0.714033 36.2278 0.904499 37.2467 1.21539 38.2401 1.64757 39.3803 2.14381 40.5043 2.8382 41.3063 3.7222 41.3234 3.74099 41.3217 3.76917 41.302 3.78626 41.3003 3.78796 41.2978 3.78967 41.2961 3.79138L38.5979 5.43554C38.5774 5.44749 38.5518 5.44579 38.533 5.43127 36.4302 3.81102 33.6604 3.27977 31.0485 3.37287 29.67 3.42155 27.0299 3.66241 26.4517 5.23653 26.274 5.72081 26.3295 6.31014 26.637 6.72353 26.9975 7.20866 27.6235 7.45721 28.2052 7.59045 28.7501 7.71515 29.2848 7.80824 29.81 7.86889 31.5533 8.07216 33.2547 8.23017 34.9133 8.34292 35.1345 8.35744 35.6402 8.41551 36.4285 8.51715 37.1502 8.61025 38.03 8.80072 38.674 9.10392 40.0781 9.76415 40.951 10.86 41.2926 12.3931 41.3951 12.8526 41.425 13.3992 41.3815 14.0338 41.1321 17.7142 37.6439 19.1747 34.4871 19.5163 33.036 19.6744 31.4986 19.6658 29.8767 19.4916 26.7831 19.1585 23.6178 18.0806 21.3467 15.8907 21.3279 15.8727 21.327 15.842 21.345 15.8232 21.3467 15.8206 21.3493 15.8189 21.3518 15.8172L24.0038 13.8946C24.0311 13.875 24.0568 13.8767 24.0807 13.8997 26.6729 16.3724 30.8708 16.9643 34.2932 16.5218 35.5121 16.3638 36.9094 15.9727 37.6354 14.9827 38.0991 14.349 38.1769 13.4266 37.7233 12.7783 37.2544 12.1078 36.4089 11.82 35.6103 11.668 34.769 11.5082 33.8611 11.3963 32.8865 11.3331 31.596 11.2486 30.396 11.1512 29.2873 11.041Z" transform="matrix(1 0 0 2.63364 97.1823 455)"/><path d="M168.756 1.17791C168.756 1.57465 168.443 1.89627 168.057 1.89627 167.672 1.89627 167.359 1.57465 167.359 1.17791 167.359 0.781169 167.672 0.459547 168.057 0.459547 168.443 0.459547 168.756 0.781169 168.756 1.17791Z" transform="matrix(0.999905 -0.0137885 0.00523554 2.63339 97.178 457.317)"/><path d="M193.954 1.17785C193.954 1.5642 193.633 1.87739 193.237 1.87739 192.841 1.87739 192.519 1.5642 192.519 1.17785 192.519 0.791509 192.841 0.478315 193.237 0.478315 193.633 0.478315 193.954 0.791509 193.954 1.17785Z" transform="matrix(0.00872625 -2.63345 0.999929 0.0229818 287.548 966.954)"/><path d="M124.452 4.81716C124.452 4.87439 124.47 4.88037 124.506 4.83681 125.233 3.94768 126.331 3.3891 127.468 3.51892 129.003 3.69401 129.579 4.91709 129.425 6.33491 129.423 6.35797 129.439 6.37932 129.463 6.38274 129.464 6.38274 129.466 6.38274 129.466 6.38274 130.092 6.40495 130.759 6.47413 130.76 5.61319 130.763 3.93487 130.764 2.24886 130.763 0.556878 130.763 0.532109 130.783 0.51161 130.809 0.51161L132.127 0.51161C132.144 0.51161 132.158 0.525276 132.158 0.541504L132.158 0.541504C132.164 2.39406 132.161 4.17487 132.151 5.88309 132.15 6.12309 132.099 6.37591 131.997 6.64153 131.727 7.34446 131.01 7.59643 130.311 7.59728 126.152 7.60582 122.089 7.60668 118.12 7.59984 117.689 7.59984 117.336 7.44867 117.062 7.14802 117.043 7.12667 117.023 7.12581 117.002 7.14546 116.494 7.60753 115.681 7.63401 115.005 7.59386 114.583 7.5691 114.258 7.42133 114.033 7.15144 114.013 7.12838 113.992 7.12667 113.969 7.14631 113.661 7.40511 113.253 7.55116 112.743 7.58361 112.14 7.62205 111.585 7.61522 111.077 7.56397 110.78 7.53408 110.51 7.44269 110.265 7.29151 110.241 7.27699 110.212 7.27528 110.187 7.28724 108.997 7.8407 106.897 7.52981 106.762 5.90017 106.642 4.43196 107.785 3.62995 109.14 3.61116 109.799 3.60177 110.481 3.60091 111.188 3.60775 111.199 3.60775 111.208 3.61714 111.208 3.62825L111.208 3.62825C111.21 4.22441 111.209 4.85218 111.206 5.51155 111.204 5.907 111.2 6.34858 111.725 6.37847 111.999 6.39384 112.255 6.38957 112.495 6.3648 112.951 6.31868 113.055 5.96337 113.054 5.57561 113.052 4.92563 113.052 4.28676 113.053 3.65899 113.053 3.62312 113.071 3.60518 113.107 3.60518L114.408 3.60518C114.439 3.60518 114.455 3.62056 114.455 3.65131 114.46 4.22441 114.459 4.83766 114.454 5.49105 114.449 5.93433 114.622 6.30245 115.092 6.36993 115.733 6.46217 116.092 6.28452 116.094 5.58159 116.094 4.92649 116.094 4.28249 116.094 3.65131 116.094 3.62056 116.109 3.60518 116.14 3.60518L117.439 3.60518C117.472 3.60518 117.488 3.62141 117.488 3.65472 117.486 4.27139 117.486 4.89062 117.489 5.51241 117.492 6.09576 117.78 6.38701 118.353 6.38616 119.907 6.38359 121.466 6.38274 123.029 6.38445 123.048 6.38445 123.057 6.37505 123.057 6.35626L123.057 0.595312C123.058 0.54065 123.085 0.513318 123.14 0.513318L124.397 0.51161C124.434 0.51161 124.452 0.529546 124.452 0.566273L124.452 4.81716ZM127.182 4.79239C126.139 4.62841 125.133 5.53547 124.51 6.34772 124.502 6.35712 124.504 6.37164 124.513 6.37847 124.518 6.38189 124.523 6.38359 124.528 6.38359L128.015 6.38359C128.03 6.38359 128.043 6.3742 128.045 6.35968 128.152 5.69006 127.934 4.91026 127.182 4.79239ZM108.156 5.47055C108.083 6.35456 109.116 6.33149 109.709 6.20082 109.727 6.19655 109.74 6.18117 109.74 6.16238L109.742 4.88293C109.742 4.84706 109.724 4.82827 109.688 4.82656 109.179 4.80093 108.216 4.74627 108.156 5.47055Z" transform="matrix(1 0 0 2.63364 97.1823 455)"/><path d="M134.6 0.51161C134.619 0.51161 134.635 0.527671 134.635 0.547482L134.635 7.56653C134.635 7.58634 134.619 7.6024 134.6 7.6024L133.277 7.6024C133.258 7.6024 133.242 7.58634 133.242 7.56653L133.242 0.547482C133.242 0.52767 133.258 0.51161 133.277 0.51161Z" transform="matrix(1 0 0 2.63364 97.1823 455)"/><path d="M140.384 4.8351C141.243 3.71707 142.849 3.14482 144.134 3.73074 145.572 4.38584 145.43 6.31014 145.079 7.57764 145.074 7.59386 145.063 7.60241 145.046 7.60241L138.177 7.60241C138.146 7.60241 138.13 7.58703 138.13 7.55543L138.13 6.4468C138.131 6.41263 138.159 6.3853 138.193 6.38445L138.878 6.38445C138.909 6.38359 138.924 6.36822 138.924 6.33747L138.924 0.543212C138.923 0.52613 138.937 0.512464 138.954 0.512464L140.29 0.512464C140.313 0.512464 140.331 0.529546 140.331 0.551753L140.331 4.81631C140.331 4.87439 140.349 4.88037 140.384 4.8351ZM142.743 4.77275C141.829 4.82314 140.97 5.59269 140.372 6.33149 140.343 6.36651 140.352 6.38359 140.396 6.38359L143.873 6.38359C143.905 6.38359 143.922 6.36822 143.926 6.33747 144.015 5.51155 143.698 4.71979 142.743 4.77275Z" transform="matrix(1 0 0 2.63364 97.1823 455)"/><path d="M179.889 6.38189C180.219 6.39128 180.52 6.38701 180.79 6.36993 181.372 6.3332 181.403 5.84722 181.402 5.40052 181.401 4.81716 181.401 4.23637 181.402 3.65814 181.402 3.6291 181.425 3.60518 181.454 3.60518 181.454 3.60518 181.454 3.60518 181.454 3.60518L182.741 3.60518C182.778 3.60518 182.796 3.62312 182.796 3.65899 182.802 4.20989 182.801 4.82143 182.793 5.49362 182.787 6.08551 183.072 6.3853 183.667 6.3853 185.754 6.3853 187.649 6.38359 189.354 6.38274 189.664 6.38274 189.882 6.22217 189.888 5.88309 189.898 5.36892 189.9 4.84706 189.893 4.31751 189.893 4.30214 189.905 4.29018 189.92 4.29018L189.92 4.29018 191.255 4.28847C191.286 4.28847 191.301 4.30384 191.301 4.33459 191.304 4.80008 191.301 5.29717 191.295 5.82501 191.291 6.21277 191.505 6.40068 191.94 6.38957 192.317 6.38018 192.506 6.19996 192.509 5.85063 192.513 5.32877 192.514 4.82485 192.511 4.33715 192.511 4.30555 192.528 4.28932 192.559 4.28932L193.882 4.28932C193.902 4.28932 193.918 4.30555 193.918 4.3252 193.922 4.79496 193.922 5.31254 193.917 5.87711 193.914 6.37335 194.411 6.45705 194.788 6.35285 195.157 6.25121 195.142 5.79597 195.139 5.49362 195.133 4.89489 195.132 4.28249 195.136 3.65472 195.136 3.62739 195.158 3.60518 195.186 3.60518L196.485 3.60518C196.515 3.60518 196.53 3.62056 196.53 3.65045 196.53 4.28505 196.53 4.92563 196.529 5.5739 196.529 5.96423 196.73 6.29733 197.13 6.36566 197.727 6.4673 198.161 6.2811 198.161 5.60721 198.162 3.91352 198.163 2.2258 198.162 0.54492 198.162 0.526984 198.177 0.512464 198.195 0.512464L199.518 0.510756C199.544 0.510756 199.565 0.532109 199.565 0.557732L199.565 0.557732C199.569 2.2463 199.569 3.94512 199.565 5.65333 199.562 6.5715 199.269 7.33849 198.258 7.53237 197.903 7.6007 197.513 7.62205 197.089 7.59557 196.667 7.56995 196.339 7.42133 196.105 7.15058 196.089 7.13265 196.072 7.13094 196.054 7.14717 195.377 7.72967 194.24 7.75017 193.517 7.2898 193.485 7.27016 193.453 7.27016 193.421 7.2898 192.882 7.63144 192.23 7.6528 191.578 7.57251 191.288 7.53749 191.03 7.43756 190.803 7.27272 190.778 7.25393 190.751 7.25308 190.725 7.27101 190.412 7.4871 190.07 7.59557 189.7 7.59728 188.426 7.60326 186.317 7.60411 183.37 7.59899 182.985 7.59813 182.652 7.45123 182.375 7.15827 182.355 7.13692 182.333 7.13521 182.31 7.15314 181.913 7.44867 181.434 7.59728 180.874 7.59899 179.672 7.60241 178.332 7.60411 176.856 7.60326 176.446 7.60326 176.072 7.83899 176.141 8.29252 176.236 8.92456 177.254 8.77424 177.675 8.7247 177.71 8.72043 177.73 8.7358 177.737 8.76997L177.962 9.84102C177.966 9.86408 177.953 9.88629 177.931 9.89227 177.233 10.0964 176.579 10.0973 175.967 9.89312 175.094 9.60187 174.636 8.82463 174.749 7.9227 174.877 6.90033 175.733 6.40153 176.702 6.38872 177.243 6.38189 177.807 6.38103 178.394 6.38616 178.416 6.38616 178.428 6.37591 178.429 6.3537 178.462 5.6576 178.259 4.91111 177.457 4.79752 177.092 4.74542 176.686 4.76762 176.239 4.86243 176.209 4.86926 176.178 4.85047 176.171 4.82058L175.897 3.77174C175.888 3.73416 175.901 3.70939 175.937 3.69657 176.454 3.5249 176.998 3.46597 177.569 3.51977 179.203 3.67351 179.883 4.783 179.829 6.31868 179.827 6.35968 179.847 6.38103 179.888 6.38189Z" transform="matrix(1 0 0 2.63364 97.1823 455)"/><path d="M202.002 0.51161C202.023 0.51161 202.04 0.528435 202.04 0.549191L202.04 7.56482C202.04 7.58558 202.023 7.60241 202.002 7.60241L200.675 7.60241C200.654 7.60241 200.637 7.58558 200.637 7.56482L200.637 0.549191C200.637 0.528435 200.654 0.51161 200.675 0.51161Z" transform="matrix(1 0 0 2.63364 97.1823 455)"/><path d="M90.2458 16.7806C92.4238 16.6739 94.53 15.9043 95.9051 14.2175 96.1323 13.9399 96.3159 13.6529 96.456 13.3565 96.4679 13.3318 96.4961 13.3189 96.5218 13.3266L99.477 14.1824C99.5009 14.1893 99.5137 14.214 99.5069 14.2371 99.5069 14.2388 99.506 14.2405 99.5052 14.2431 99.2395 14.858 98.8569 15.4525 98.429 15.9684 96.5559 18.2318 93.7809 19.3353 90.8394 19.5462 87.8722 19.7589 84.5361 19.3079 82.1642 17.405 79.736 15.4576 78.7828 12.411 78.9126 9.31831 78.9374 8.73495 79.016 8.17295 79.1501 7.6323 80.5115 2.13356 85.8915 0.192174 91.0785 0.627769 94.5624 0.920727 97.8473 2.69812 99.3241 5.91213 99.3506 5.96935 99.3335 6.00779 99.2737 6.02658L96.3646 6.94047C96.3398 6.9473 96.3134 6.9362 96.3023 6.91314 95.7172 5.73874 94.8076 4.83424 93.5725 4.20135 91.8993 3.34383 89.7572 3.16105 87.8978 3.50013 84.3251 4.15096 82.113 7.00624 82.2838 10.637 82.4008 13.1456 83.9305 15.1732 86.2315 16.146 87.4059 16.6423 88.7443 16.8541 90.2458 16.7806Z" transform="matrix(1 0 0 2.63364 97.1823 455)"/><path d="M46.7017 3.47024C46.7017 3.50611 46.7137 3.51038 46.7384 3.4839 47.9564 2.15747 49.6646 1.23504 51.3993 0.904499 53.4039 0.521859 55.3299 0.620082 57.1773 1.19917 58.707 1.67832 59.8806 2.58196 60.6988 3.9101 60.7039 3.91864 60.7159 3.92206 60.7244 3.91608 60.7261 3.91523 60.7279 3.91352 60.7296 3.91181 61.7724 2.61698 63.2748 1.66807 64.8344 1.19233 67.5795 0.355308 70.8695 0.386056 73.437 1.78252 75.3604 2.8288 76.4921 4.38071 76.8329 6.4374 76.9362 7.0609 76.9875 7.74419 76.9875 8.48726 76.9875 11.9532 76.9892 15.438 76.99 18.9415 76.99 18.9603 76.9755 18.9748 76.9567 18.9748L73.8615 18.9748C73.8401 18.9748 73.8222 18.9569 73.8222 18.9347 73.8222 15.719 73.8213 12.5622 73.8213 9.46607 73.8213 8.89723 73.8008 8.37623 73.7598 7.90305 73.5839 5.88053 72.3317 4.60876 70.498 3.98014 68.2167 3.19692 65.2589 3.71964 63.414 5.30913 62.6035 6.00693 62.1081 6.8414 61.9287 7.81166 61.8502 8.23786 61.8109 8.72043 61.81 9.26023 61.81 12.4785 61.81 15.7053 61.8109 18.9398 61.8109 18.9595 61.7955 18.9748 61.7758 18.9748L58.6823 18.9748C58.6584 18.9748 58.6396 18.956 58.6396 18.9321 58.6464 15.5388 58.6447 12.2189 58.6344 8.97239 58.6267 6.56723 57.765 4.67709 55.2915 3.89473 54.6722 3.69914 54.0299 3.60689 53.3654 3.61885 51.1712 3.65814 49.0326 4.42256 47.6335 6.15469 47.1467 6.75684 46.8144 7.55543 46.7538 8.30448 46.7171 8.75887 46.7009 9.22435 46.7009 9.66934 46.7009 12.7535 46.7017 15.8386 46.7026 18.9262 46.7026 18.9586 46.6863 18.9748 46.6539 18.9748L43.4484 18.9748C43.4347 18.9748 43.4236 18.9637 43.4236 18.9501L43.4236 1.18806C43.4236 1.17269 43.4365 1.15988 43.4518 1.15988L46.653 1.15988C46.6855 1.15988 46.7017 1.17611 46.7017 1.20771L46.7017 3.47024Z" transform="matrix(1 0 0 2.63364 97.1823 455)"/><path d="M161.707 1.72058C161.707 2.11569 161.393 2.43599 161.007 2.43599 160.62 2.43599 160.307 2.11569 160.307 1.72058 160.307 1.32547 160.62 1.00517 161.007 1.00517 161.393 1.00517 161.707 1.32547 161.707 1.72058Z" transform="matrix(0.999145 -0.0413371 0.0156958 2.63139 97.1754 461.656)"/><path d="M177.937 1.72008C177.937 2.11507 177.624 2.43528 177.238 2.43528 176.852 2.43528 176.539 2.11507 176.539 1.72008 176.539 1.32508 176.852 1.00487 177.238 1.00487 177.624 1.00487 177.937 1.32508 177.937 1.72008Z" transform="matrix(0.999483 -0.0321609 0.0122116 2.63228 97.1746 460.7)"/><path d="M109.133 1.82266C109.133 2.21324 108.816 2.52986 108.425 2.52986 108.035 2.52986 107.718 2.21324 107.718 1.82266 107.718 1.43209 108.035 1.11546 108.425 1.11546 108.816 1.11546 109.133 1.43209 109.133 1.82266Z" transform="matrix(1 0 0 2.63364 97.1823 455)"/><path d="M110.82 1.82266C110.82 2.21324 110.503 2.52986 110.112 2.52986 109.722 2.52986 109.405 2.21324 109.405 1.82266 109.405 1.43209 109.722 1.11546 110.112 1.11546 110.503 1.11546 110.82 1.43209 110.82 1.82266Z" transform="matrix(1 0 0 2.63364 97.1823 455)"/><path d="M207.929 1.82266C207.929 2.21371 207.612 2.53072 207.221 2.53072 206.83 2.53072 206.513 2.21371 206.513 1.82266 206.513 1.43162 206.83 1.11461 207.221 1.11461 207.612 1.11461 207.929 1.43162 207.929 1.82266Z" transform="matrix(1 0 0 2.63364 97.1823 455)"/><path d="M209.613 1.82266C209.613 2.21324 209.297 2.52986 208.906 2.52986 208.515 2.52986 208.199 2.21324 208.199 1.82266 208.199 1.43209 208.515 1.11546 208.906 1.11546 209.297 1.11546 209.613 1.43209 209.613 1.82266Z" transform="matrix(1 0 0 2.63364 97.1823 455)"/><path d="M212.895 1.82267C212.895 2.20852 212.574 2.52133 212.179 2.52133 211.784 2.52133 211.463 2.20852 211.463 1.82267 211.463 1.43681 211.784 1.12401 212.179 1.12401 212.574 1.12401 212.895 1.43681 212.895 1.82267Z" transform="matrix(0.00174533 -2.63363 0.999997 0.00459656 307.168 1018.59)"/><path d="M167.869 2.61442C167.869 3.00641 167.551 3.32418 167.159 3.32418 166.767 3.32418 166.449 3.00641 166.449 2.61442 166.449 2.22243 166.767 1.90466 167.159 1.90466 167.551 1.90466 167.869 2.22243 167.869 2.61442Z" transform="matrix(1 0 0 2.63364 97.1823 455)"/><path d="M169.554 2.61442C169.554 3.00594 169.236 3.32333 168.845 3.32333 168.453 3.32333 168.136 3.00594 168.136 2.61442 168.136 2.2229 168.453 1.90551 168.845 1.90551 169.236 1.90551 169.554 2.2229 169.554 2.61442Z" transform="matrix(1 0 0 2.63364 97.1823 455)"/><path d="M193.055 2.61442C193.055 3.00641 192.737 3.32418 192.345 3.32418 191.953 3.32418 191.635 3.00641 191.635 2.61442 191.635 2.22243 191.953 1.90466 192.345 1.90466 192.737 1.90466 193.055 2.22243 193.055 2.61442Z" transform="matrix(1 0 0 2.63364 97.1823 455)"/><path d="M194.741 2.61442C194.741 3.00594 194.423 3.32333 194.032 3.32333 193.64 3.32333 193.323 3.00594 193.323 2.61442 193.323 2.2229 193.64 1.90551 194.032 1.90551 194.423 1.90551 194.741 2.2229 194.741 2.61442Z" transform="matrix(1 0 0 2.63364 97.1823 455)"/><path d="M219.888 6.33149C219.759 5.55084 219.03 4.85731 218.373 4.43879 218.348 4.42342 218.341 4.39011 218.357 4.36534 218.357 4.36363 218.358 4.36278 218.359 4.36192L219.134 3.33443C219.16 3.29941 219.192 3.29429 219.229 3.31735 220.331 4.0143 221.144 4.97688 221.265 6.33064 221.267 6.36566 221.287 6.38359 221.322 6.38359L226.723 6.38359C226.766 6.38445 226.778 6.3648 226.759 6.32552 226.69 6.18288 226.65 6.02487 226.629 5.86771 226.411 4.28932 227.643 3.42241 229.083 3.50782 229.868 3.55394 230.441 3.88021 230.803 4.48662 231.311 5.34158 231.095 6.63214 230.256 7.19329 229.713 7.55628 229.119 7.60582 228.456 7.60497 224.879 7.6007 221.171 7.6007 217.333 7.60326 217.29 7.60326 217.268 7.58105 217.268 7.53749L217.268 6.43399C217.267 6.40666 217.289 6.38445 217.317 6.38445L219.844 6.38445C219.88 6.38359 219.894 6.36651 219.888 6.33149ZM228.49 4.84108C227.892 5.08108 227.908 5.83355 228.17 6.33491 228.185 6.3631 228.209 6.37847 228.24 6.38018 228.784 6.40751 229.467 6.47413 229.641 5.81391 229.839 5.06058 229.159 4.57203 228.49 4.84108Z" transform="matrix(1 0 0 2.63364 97.1823 455)"/><path d="M148.91 7.60241C148.077 7.62974 147.287 7.57849 146.682 6.99086 145.887 6.22131 146.029 4.80435 146.823 4.08519 147.362 3.59664 148.022 3.41387 148.803 3.536 149.616 3.66326 150.127 4.1185 150.337 4.90172 150.456 5.34415 150.401 5.86601 150.41 6.33747 150.41 6.36822 150.426 6.38359 150.458 6.38359 152.58 6.38445 154.629 6.38359 156.604 6.38189 157.223 6.38189 157.223 5.7618 157.221 5.32023 157.218 4.75738 157.217 4.2005 157.22 3.65131 157.22 3.62056 157.235 3.60518 157.267 3.60518L158.565 3.60518C158.597 3.60518 158.613 3.62141 158.612 3.65301 158.609 4.26456 158.609 4.89489 158.614 5.54315 158.617 6.10857 158.935 6.39128 159.462 6.38787 160.344 6.38189 161.202 6.38103 162.035 6.3853 162.06 6.3853 162.074 6.37335 162.077 6.34943 162.165 5.69006 162 5.00763 161.28 4.8257 160.885 4.72577 160.393 4.7736 159.967 4.86158 159.937 4.86756 159.909 4.84962 159.902 4.82143L159.614 3.75465C159.606 3.72732 159.616 3.70939 159.644 3.70085 160.279 3.50355 160.913 3.4523 161.544 3.54881 163.021 3.77344 163.579 4.89318 163.491 6.32637 163.488 6.3648 163.507 6.38445 163.545 6.3853 163.792 6.38957 164.02 6.3853 164.229 6.37591 164.543 6.36053 164.702 6.17861 164.708 5.82928 164.716 5.32279 164.717 4.82485 164.711 4.33715 164.711 4.31153 164.731 4.29103 164.756 4.29018 164.756 4.29018 164.756 4.29018 164.757 4.29018L166.061 4.29018C166.086 4.29018 166.107 4.30982 166.107 4.33459 166.107 4.33459 166.107 4.33459 166.107 4.33459 166.107 4.79666 166.107 5.29973 166.108 5.8438 166.109 6.311 166.462 6.41861 166.849 6.38103 167.159 6.35114 167.315 6.18117 167.319 5.87028 167.325 5.37746 167.326 4.87012 167.321 4.34826 167.321 4.3158 167.347 4.29018 167.379 4.28932 167.379 4.28932 167.379 4.28932 167.38 4.28932L168.672 4.28762C168.713 4.28762 168.733 4.30812 168.733 4.34826 168.731 4.87353 168.73 5.38002 168.731 5.86601 168.731 6.20167 168.917 6.37591 169.287 6.38872 169.72 6.40324 169.938 6.21363 169.939 5.81988 169.941 5.09475 169.942 4.37303 169.941 3.65387 169.941 3.62056 169.957 3.60433 169.99 3.60433L171.293 3.60433C171.327 3.60433 171.344 3.62141 171.344 3.65472 171.345 4.45246 171.344 5.23482 171.341 6.00266 171.335 7.59813 169.409 7.97394 168.321 7.28297 168.293 7.26589 168.266 7.26589 168.239 7.28382 167.741 7.61607 167.156 7.63401 166.559 7.5913 166.184 7.56482 165.862 7.45379 165.594 7.25735 165.581 7.24795 165.564 7.24881 165.552 7.25735 165.178 7.54603 164.773 7.59472 164.246 7.59728 161.837 7.60668 160.143 7.60497 159.165 7.59216 158.785 7.58618 158.461 7.44098 158.192 7.15485 158.171 7.1335 158.15 7.13179 158.127 7.14973 157.748 7.44269 157.309 7.5913 156.81 7.59386 155.139 7.60326 153.015 7.60411 150.438 7.59813 150.397 7.59813 150.375 7.61863 150.371 7.65878 150.195 9.34905 148.379 9.53696 147.074 9.39603 147.049 9.39347 147.029 9.37297 147.028 9.3482L146.964 8.19174C146.962 8.16355 146.983 8.14049 147.011 8.13878 147.013 8.13878 147.017 8.13878 147.019 8.13878 147.609 8.21138 148.638 8.26775 148.955 7.67244 148.982 7.62205 148.967 7.59813 148.91 7.6007ZM148.112 6.33662C148.315 6.39214 148.599 6.40666 148.964 6.37932 148.996 6.37676 149.013 6.35968 149.014 6.32722 149.027 5.95398 149.018 5.64308 148.986 5.39454 148.943 5.05033 148.776 4.84791 148.485 4.78727 147.516 4.58399 147.241 6.10089 148.112 6.33662Z" transform="matrix(1 0 0 2.63364 97.1823 455)"/><path d="M212.397 7.14375C212.113 7.40084 211.713 7.5486 211.198 7.58532 210.534 7.63315 209.63 7.66219 209.067 7.29322 209.043 7.27699 209.012 7.27443 208.985 7.28639 207.751 7.84155 205.704 7.54518 205.554 5.85832 205.461 4.824 206.094 4.02284 207.074 3.73843 207.404 3.64277 207.773 3.5975 208.183 3.60177 208.739 3.60775 209.329 3.6086 209.951 3.60177 209.986 3.60177 210.003 3.61885 210.003 3.65216 210.005 4.31324 210.004 4.98201 210.001 5.6576 209.999 5.97106 210.052 6.311 210.424 6.3648 210.8 6.41947 211.351 6.42715 211.438 5.94715 211.478 5.72337 211.496 5.47568 211.494 5.20493 211.489 4.69759 211.488 4.18 211.492 3.65301 211.492 3.62056 211.508 3.60433 211.541 3.60433L212.83 3.60433C212.866 3.60433 212.885 3.62312 212.885 3.65985 212.888 4.22868 212.888 4.85731 212.885 5.54572 212.882 6.41776 213.56 6.40922 214.214 6.37932 214.65 6.35883 214.871 6.12822 214.878 5.68835 214.887 5.0324 214.889 4.35595 214.883 3.65814 214.883 3.62227 214.9 3.60433 214.937 3.60433L216.226 3.60433C216.264 3.60433 216.283 3.62312 216.284 3.66156 216.296 4.4294 216.293 5.15283 216.275 5.83184 216.242 7.11983 215.531 7.54433 214.389 7.59813 213.939 7.61949 213.555 7.60838 213.235 7.56653 212.921 7.52554 212.662 7.38546 212.457 7.14717 212.438 7.12496 212.418 7.12325 212.397 7.1429ZM206.945 5.52436C206.912 6.34601 207.933 6.33491 208.493 6.19911 208.516 6.19398 208.532 6.17263 208.533 6.14872L208.533 4.86585C208.534 4.83937 208.521 4.82656 208.494 4.8257 207.969 4.81033 206.977 4.72663 206.945 5.52436Z" transform="matrix(1 0 0 2.63364 97.1823 455)"/><path d="M113.418 9.0262C113.418 9.41678 113.101 9.7334 112.711 9.7334 112.32 9.7334 112.003 9.41678 112.003 9.0262 112.003 8.63563 112.32 8.319 112.711 8.319 113.101 8.319 113.418 8.63563 113.418 9.0262Z" transform="matrix(1 0 0 2.63364 97.1823 455)"/><path d="M115.103 9.0262C115.103 9.41678 114.786 9.7334 114.396 9.7334 114.005 9.7334 113.688 9.41678 113.688 9.0262 113.688 8.63563 114.005 8.319 114.396 8.319 114.786 8.319 115.103 8.63563 115.103 9.0262Z" transform="matrix(1 0 0 2.63364 97.1823 455)"/><path d="M117.412 9.02885C117.412 9.41482 117.092 9.72771 116.698 9.72771 116.304 9.72771 115.985 9.41482 115.985 9.02885 115.985 8.64287 116.304 8.32998 116.698 8.32998 117.092 8.32998 117.412 8.64287 117.412 9.02885Z" transform="matrix(0.0261692 -2.63196 0.999364 0.0689203 201.769 785.296)"/><path d="M158.494 9.0262C158.494 9.41678 158.177 9.7334 157.787 9.7334 157.396 9.7334 157.08 9.41678 157.08 9.0262 157.08 8.63563 157.396 8.319 157.787 8.319 158.177 8.319 158.494 8.63563 158.494 9.0262Z" transform="matrix(1 0 0 2.63364 97.1823 455)"/><path d="M181.757 9.02535C181.757 9.41592 181.44 9.73255 181.049 9.73255 180.659 9.73255 180.342 9.41592 180.342 9.02535 180.342 8.63477 180.659 8.31815 181.049 8.31815 181.44 8.31815 181.757 8.63477 181.757 9.02535Z" transform="matrix(1 0 0 2.63364 97.1823 455)"/><path d="M183.443 9.0262C183.443 9.41678 183.126 9.7334 182.735 9.7334 182.345 9.7334 182.028 9.41678 182.028 9.0262 182.028 8.63563 182.345 8.319 182.735 8.319 183.126 8.319 183.443 8.63563 183.443 9.0262Z" transform="matrix(1 0 0 2.63364 97.1823 455)"/><path d="M215.126 9.02535C215.126 9.41592 214.809 9.73255 214.418 9.73255 214.028 9.73255 213.711 9.41592 213.711 9.02535 213.711 8.63477 214.028 8.31815 214.418 8.31815 214.809 8.31815 215.126 8.63477 215.126 9.02535Z" transform="matrix(1 0 0 2.63364 97.1823 455)"/><path d="M216.812 9.0262C216.812 9.41678 216.495 9.7334 216.104 9.7334 215.714 9.7334 215.397 9.41678 215.397 9.0262 215.397 8.63563 215.714 8.319 216.104 8.319 216.495 8.319 216.812 8.63563 216.812 9.0262Z" transform="matrix(1 0 0 2.63364 97.1823 455)"/><path d="M113.126 15.8744C113.487 15.2193 114.391 15.1527 115.009 15.4038 115.647 15.6635 115.802 16.4057 115.808 17.0411 115.816 17.7834 115.818 18.599 115.813 19.4873 115.813 19.5266 115.793 19.5462 115.755 19.5462L114.578 19.5462C114.538 19.5471 114.518 19.5266 114.518 19.4864 114.521 18.7605 114.52 18.0379 114.514 17.3196 114.511 16.9181 114.413 16.4527 113.934 16.4176 113.261 16.3681 113.085 16.8609 113.086 17.4127 113.086 18.0934 113.086 18.7861 113.084 19.489 113.084 19.5274 113.064 19.5462 113.026 19.5462L111.827 19.5462C111.809 19.5471 111.793 19.5317 111.793 19.5129L111.793 19.5129 111.793 13.1208C111.793 13.0806 111.813 13.0601 111.853 13.0601L113.041 13.0601C113.07 13.0601 113.085 13.0747 113.085 13.1037L113.085 15.8642C113.085 15.9214 113.099 15.9248 113.126 15.8744Z" transform="matrix(1 0 0 2.63364 97.1823 455)"/><path d="M125.022 17.5194 125.025 19.5172C125.025 19.5334 125.012 19.5462 124.996 19.5462L123.764 19.5462C123.748 19.5462 123.735 19.5334 123.735 19.5172L123.735 19.5172C123.735 19.5172 123.735 13.0883 123.735 13.0883 123.735 13.0721 123.748 13.0593 123.764 13.0593L124.998 13.0636C125.014 13.0636 125.027 13.0764 125.027 13.0926L125.027 13.0926C125.027 13.0926 125.024 16.9352 125.024 16.9352 125.024 16.9515 125.036 16.9643 125.052 16.9651 125.061 16.9651 125.069 16.9617 125.075 16.9549L126.431 15.3808C126.436 15.3739 126.445 15.3705 126.453 15.3705L127.975 15.3688C127.991 15.3688 128.004 15.3816 128.004 15.3978 128.004 15.4055 128.002 15.4124 127.996 15.4175L126.39 17.2376C126.38 17.2478 126.38 17.2632 126.388 17.2743L128.04 19.5001C128.049 19.5129 128.047 19.5309 128.034 19.5403 128.029 19.5437 128.023 19.5462 128.016 19.5462L126.451 19.5462C126.441 19.5462 126.432 19.542 126.427 19.5343L125.075 17.5032C125.066 17.4904 125.048 17.487 125.035 17.4955 125.028 17.5006 125.022 17.51 125.022 17.5194Z" transform="matrix(1 0 0 2.63364 97.1823 455)"/><path d="M129.834 15.8514C130.033 15.5294 130.35 15.3389 130.719 15.2928 132.045 15.1288 132.498 15.9282 132.508 17.1317 132.514 17.8952 132.516 18.6819 132.512 19.4907 132.512 19.5274 132.492 19.5462 132.456 19.5462L131.259 19.5462C131.225 19.5471 131.208 19.53 131.209 19.4967 131.216 18.7331 131.215 17.9781 131.204 17.2308 131.199 16.849 131.068 16.4569 130.643 16.4185 130.045 16.3638 129.793 16.7695 129.789 17.2982 129.783 18.0618 129.782 18.7903 129.786 19.4847 129.786 19.5266 129.765 19.5471 129.723 19.5471L128.546 19.5454C128.509 19.5454 128.491 19.5274 128.491 19.4907L128.491 13.1105C128.491 13.0772 128.507 13.061 128.54 13.061L129.74 13.061C129.764 13.0601 129.785 13.0798 129.785 13.1046L129.785 13.1046C129.785 13.1046 129.784 15.8368 129.784 15.8368 129.784 15.8992 129.8 15.9035 129.834 15.8514Z" transform="matrix(1 0 0 2.63364 97.1823 455)"/><path d="M142.15 15.8548C142.32 15.567 142.581 15.3859 142.936 15.3116 143.254 15.245 143.667 15.262 143.974 15.3816 144.668 15.6507 144.815 16.3929 144.822 17.0736 144.832 17.9132 144.833 18.7203 144.826 19.495 144.826 19.53 144.808 19.5471 144.773 19.5471L143.577 19.5454C143.539 19.5454 143.521 19.5266 143.522 19.4899 143.524 18.7511 143.525 18.0088 143.522 17.2632 143.521 16.7909 143.351 16.3638 142.771 16.4176 142.254 16.4655 142.103 16.8976 142.103 17.3443 142.102 18.014 142.101 18.7289 142.102 19.4882 142.102 19.5274 142.082 19.5471 142.043 19.5462L140.843 19.5462C140.823 19.5462 140.807 19.53 140.807 19.5104L140.807 19.5104C140.807 19.5104 140.808 13.1148 140.808 13.1148 140.808 13.0841 140.833 13.0593 140.864 13.0593L140.864 13.0593 142.049 13.0619C142.084 13.0619 142.101 13.0798 142.101 13.1148L142.101 15.842C142.102 15.9052 142.118 15.9094 142.15 15.8548Z" transform="matrix(1 0 0 2.63364 97.1823 455)"/><path d="M151.625 17.5024 151.63 19.5163C151.63 19.5326 151.617 19.5454 151.601 19.5454L151.601 19.5454 150.385 19.5479C150.345 19.5479 150.325 19.5274 150.325 19.4864L150.325 13.1046C150.325 13.0747 150.339 13.0601 150.368 13.0601L151.584 13.0601C151.614 13.061 151.629 13.0755 151.629 13.1054L151.627 16.9318C151.627 16.9788 151.642 16.9839 151.672 16.9489L153.018 15.3893C153.029 15.3765 153.043 15.3705 153.06 15.3705L154.553 15.3671C154.57 15.3671 154.585 15.3816 154.585 15.3987 154.585 15.4021 154.585 15.4047 154.583 15.4072 154.575 15.4329 154.563 15.4559 154.545 15.4756 154.007 16.0777 153.492 16.6602 153.001 17.2231 152.984 17.2427 152.982 17.2726 152.999 17.294L154.643 19.5112C154.65 19.5215 154.647 19.5351 154.638 19.542 154.634 19.5445 154.63 19.5462 154.625 19.5462L153.077 19.5462C153.047 19.5471 153.023 19.5343 153.006 19.5087L151.662 17.4913C151.637 17.4545 151.625 17.4579 151.625 17.5024Z" transform="matrix(1 0 0 2.63364 97.1823 455)"/><path d="M156.428 15.8548C156.815 15.2262 157.668 15.1519 158.282 15.3944 158.93 15.6507 159.098 16.3903 159.1 17.0326 159.101 17.7868 159.101 18.605 159.1 19.4873 159.1 19.5266 159.081 19.5462 159.042 19.5462L157.864 19.5462C157.833 19.5471 157.808 19.5223 157.808 19.4916L157.808 19.4916C157.818 18.7118 157.815 17.9422 157.801 17.1821 157.796 16.8746 157.657 16.4851 157.314 16.4305 156.521 16.3032 156.372 16.8925 156.381 17.5408 156.39 18.201 156.39 18.851 156.384 19.4907 156.384 19.5215 156.358 19.5462 156.327 19.5462L155.146 19.5462C155.105 19.5471 155.084 19.5266 155.084 19.4856L155.084 13.1063C155.084 13.0815 155.103 13.061 155.128 13.061L155.128 13.061 156.332 13.0593C156.361 13.0593 156.385 13.0824 156.386 13.1122 156.386 13.1122 156.386 13.1122 156.386 13.1131L156.386 15.8428C156.386 15.8958 156.4 15.9001 156.428 15.8548Z" transform="matrix(1 0 0 2.63364 97.1823 455)"/><path d="M161.41 15.7574C161.735 15.3492 162.314 15.2518 162.818 15.2791 164.421 15.3662 164.991 17.4733 164.291 18.6853 163.965 19.249 163.454 19.5676 162.758 19.6419 162.2 19.7008 161.631 19.4864 161.293 19.05 161.261 19.0081 161.245 19.0141 161.245 19.0662L161.247 19.4907C161.247 19.5274 161.229 19.5462 161.192 19.5462L160.121 19.5462C160.081 19.5471 160.06 19.5266 160.06 19.4856L160.06 13.1046C160.06 13.0755 160.075 13.061 160.105 13.061L161.301 13.061C161.333 13.061 161.348 13.0764 161.348 13.1071L161.348 15.7361C161.349 15.8018 161.37 15.8087 161.41 15.7574ZM163.28 17.3392C163.278 16.8302 162.864 16.4185 162.354 16.4202L162.173 16.4202C161.664 16.4228 161.252 16.837 161.254 17.3469L161.254 17.5809C161.256 18.09 161.67 18.5017 162.18 18.5L162.361 18.5C162.87 18.4974 163.282 18.0832 163.28 17.5732L163.28 17.3392Z" transform="matrix(1 0 0 2.63364 97.1823 455)"/><path d="M197.375 19.0611C196.556 20.0057 195.12 19.7495 194.459 18.8083 193.642 17.6458 194.187 15.42 195.801 15.2842 196.342 15.2381 196.922 15.3449 197.282 15.7702 197.307 15.8001 197.32 15.795 197.32 15.7566L197.317 13.1071C197.317 13.0764 197.332 13.061 197.363 13.061L198.58 13.061C198.61 13.0601 198.624 13.0747 198.624 13.1037L198.624 19.4856C198.624 19.5257 198.604 19.5462 198.564 19.5462L197.488 19.5462C197.447 19.5471 197.427 19.5266 197.427 19.4856L197.427 19.0807C197.426 19.0278 197.409 19.021 197.375 19.0611ZM197.417 17.3367C197.414 16.8268 196.997 16.4159 196.487 16.4202L196.306 16.4202C195.796 16.4253 195.385 16.8413 195.39 17.3512L195.391 17.5835C195.395 18.0934 195.812 18.5042 196.322 18.5L196.503 18.5C197.013 18.4948 197.423 18.0789 197.419 17.569L197.419 17.569C197.419 17.569 197.417 17.3367 197.417 17.3367Z" transform="matrix(1 0 0 2.63364 97.1823 455)"/><path d="M211.803 13.061C211.822 13.061 211.836 13.0759 211.836 13.0943L211.836 19.5138C211.836 19.5322 211.822 19.5471 211.803 19.5471L210.575 19.5471C210.557 19.5471 210.542 19.5322 210.542 19.5138L210.542 13.0943C210.542 13.0759 210.557 13.061 210.575 13.061Z" transform="matrix(1 0 0 2.63364 97.1823 455)"/><path d="M108.261 19.6769C107.653 19.6077 107.125 19.3703 106.675 18.9637 106.658 18.9484 106.657 18.9227 106.672 18.9065L107.58 17.9089C107.594 17.8927 107.61 17.8927 107.624 17.9089 108.077 18.4051 108.607 18.564 109.214 18.3855 109.632 18.2625 109.89 17.768 109.523 17.4409 109.382 17.3153 109.217 17.2222 109.028 17.1599 107.98 16.8139 106.708 16.5483 106.854 15.1006 107.053 13.1336 109.771 12.868 111.01 13.9322 111.025 13.945 111.027 13.9681 111.014 13.9826 111.014 13.9826 111.014 13.9826 111.014 13.9826L110.148 14.9298C110.134 14.946 110.109 14.9469 110.093 14.9324 110.093 14.9324 110.093 14.9324 110.093 14.9324 109.716 14.5958 109.275 14.4908 108.772 14.6172 108.381 14.7154 108.069 15.1066 108.347 15.485 108.442 15.6148 108.615 15.7207 108.865 15.8027 109.222 15.9197 109.574 16.0324 109.922 16.1418 110.081 16.1922 110.266 16.2972 110.479 16.4569 110.796 16.6952 110.977 17.013 111.022 17.4093 111.222 19.1491 109.749 19.846 108.261 19.6761Z" transform="matrix(1 0 0 2.63364 97.1823 455)"/><path d="M122.912 14.0697C122.912 14.4853 122.575 14.8222 122.159 14.8222 121.744 14.8222 121.407 14.4853 121.407 14.0697 121.407 13.6541 121.744 13.3172 122.159 13.3172 122.575 13.3172 122.912 13.6541 122.912 14.0697Z" transform="matrix(1 0 0 2.63364 97.1823 455)"/><path d="M136.585 17.9183C136.6 17.9012 136.626 17.9004 136.643 17.9157 136.643 17.9157 136.645 17.9175 136.646 17.9183 137.088 18.3992 137.608 18.5572 138.206 18.3923 138.64 18.2728 138.887 17.832 138.554 17.452 138.461 17.3461 138.277 17.2453 138.001 17.1496 137.205 16.8737 136.058 16.6431 135.895 15.6566 135.671 14.2986 136.643 13.4291 137.932 13.3309 138.728 13.2703 139.412 13.4539 140.005 13.9125 140.038 13.939 140.041 13.9672 140.012 13.9988L139.164 14.9264C139.143 14.9503 139.119 14.9511 139.096 14.9289 138.692 14.5548 138.031 14.431 137.527 14.7299 137.203 14.9221 137.16 15.3679 137.465 15.5909 137.62 15.7045 137.797 15.7916 137.999 15.8505 138.866 16.1059 139.953 16.351 140.044 17.4716 140.138 18.6136 139.504 19.401 138.417 19.6299 137.462 19.8307 136.454 19.641 135.706 18.98 135.679 18.9569 135.677 18.9168 135.701 18.8911 135.701 18.8911 135.701 18.8911 135.701 18.8911L136.585 17.9192Z" transform="matrix(1 0 0 2.63364 97.1823 455)"/><path d="M200.991 14.0697C200.991 14.4858 200.654 14.823 200.238 14.823 199.822 14.823 199.484 14.4858 199.484 14.0697 199.484 13.6537 199.822 13.3164 200.238 13.3164 200.654 13.3164 200.991 13.6537 200.991 14.0697Z" transform="matrix(1 0 0 2.63364 97.1823 455)"/><path d="M218.913 14.6795C217.157 14.0697 216.048 15.994 216.743 17.452 217.031 18.0558 217.493 18.3889 218.129 18.4521 218.644 18.5034 219.17 18.2779 219.462 17.8397 219.476 17.8175 219.506 17.8115 219.529 17.8261 219.529 17.8261 219.53 17.8269 219.53 17.8278L220.58 18.6093C220.604 18.6272 220.608 18.6605 220.591 18.6844 219.939 19.5522 218.85 19.823 217.805 19.659 216.367 19.4343 215.354 18.4564 215.171 16.995 214.968 15.3679 215.742 13.9228 217.368 13.4582 218.428 13.1558 219.683 13.3044 220.445 14.1722 220.464 14.1944 220.462 14.2277 220.44 14.2465 220.44 14.2465 220.44 14.2465 220.439 14.2474L219.472 15.0348C219.449 15.0536 219.415 15.0502 219.396 15.0272 219.396 15.0272 219.396 15.0272 219.396 15.0272 219.259 14.8598 219.098 14.7436 218.913 14.6795Z" transform="matrix(1 0 0 2.63364 97.1823 455)"/><path d="M222.508 14.0706C222.508 14.4866 222.17 14.8239 221.754 14.8239 221.338 14.8239 221.001 14.4866 221.001 14.0706 221.001 13.6545 221.338 13.3172 221.754 13.3172 222.17 13.3172 222.508 13.6545 222.508 14.0706Z" transform="matrix(1 0 0 2.63364 97.1823 455)"/><path d="M187.075 15.0092C187.075 14.9178 187.06 14.9153 187.031 15.0015L185.489 19.4976C185.48 19.5266 185.452 19.5462 185.421 19.5462L184.496 19.5462C184.46 19.5471 184.436 19.53 184.425 19.4958L182.962 15.0553C182.922 14.9349 182.903 14.9383 182.903 15.0656L182.903 19.489C182.904 19.5274 182.884 19.5471 182.845 19.5471L181.593 19.5471C181.575 19.5471 181.56 19.5317 181.56 19.5138L181.56 19.5138C181.56 19.5138 181.561 13.5145 181.561 13.5145 181.561 13.4906 181.58 13.4718 181.603 13.4718L183.534 13.4735C183.571 13.4735 183.595 13.4906 183.607 13.5248L184.957 17.3537C184.977 17.4118 184.998 17.4118 185.018 17.3537L186.382 13.5086C186.39 13.4872 186.411 13.4727 186.433 13.4727L188.378 13.4727C188.401 13.4727 188.419 13.4906 188.419 13.5137L188.419 19.4864C188.419 19.5198 188.391 19.5471 188.358 19.5471L187.132 19.5454C187.092 19.5454 187.072 19.5257 187.072 19.4856L187.075 15.0092Z" transform="matrix(1 0 0 2.63364 97.1823 455)"/><path d="M177.069 16.468C177.072 16.9814 177.076 17.4759 177.081 17.9516 177.084 18.172 177.132 18.3274 177.225 18.4188 177.437 18.6247 177.91 18.5751 178.156 18.4743 178.191 18.4598 178.209 18.4718 178.209 18.5093L178.209 19.4719C178.209 19.5061 178.192 19.5283 178.159 19.5377 177.436 19.7401 176.3 19.7589 175.898 18.9894 175.811 18.822 175.769 18.5862 175.772 18.2822 175.778 17.6202 175.78 17.0121 175.779 16.4595 175.779 16.4287 175.763 16.4134 175.732 16.4134L175.007 16.4134C174.978 16.4134 174.954 16.3895 174.954 16.3604L174.954 15.4277C174.954 15.3893 174.975 15.3705 175.013 15.3705L175.735 15.3688C175.759 15.3688 175.778 15.3492 175.778 15.3252L175.778 15.3252 175.778 14.1987C175.778 14.1585 175.797 14.1389 175.838 14.1389L177.007 14.1389C177.052 14.1389 177.075 14.1619 177.075 14.2072L177.073 15.3235C177.073 15.3543 177.088 15.3697 177.12 15.3697L178.146 15.3697C178.188 15.3697 178.209 15.3902 178.209 15.432L178.209 16.3519C178.209 16.3929 178.188 16.4134 178.146 16.4134L177.124 16.4134C177.087 16.4125 177.068 16.4313 177.069 16.468Z" transform="matrix(1 0 0 2.63364 97.1823 455)"/><path d="M225.059 15.3697 226.06 15.3697C226.1 15.3697 226.12 15.3893 226.12 15.4294L226.12 16.3544C226.12 16.3946 226.099 16.4142 226.059 16.4142L225.042 16.4117C225.015 16.4117 224.994 16.433 224.994 16.4595L224.994 16.4595C224.995 16.8874 224.994 17.3068 224.991 17.7167 224.99 18.0413 224.97 18.4641 225.399 18.5392 225.637 18.5811 225.859 18.5589 226.064 18.4743 226.101 18.459 226.12 18.4709 226.12 18.5111L226.12 19.4736C226.12 19.5146 226.1 19.5394 226.061 19.5488 225.096 19.7803 223.709 19.7128 223.697 18.412 223.691 17.762 223.69 17.112 223.694 16.4612 223.694 16.427 223.677 16.41 223.644 16.4108L222.915 16.4185C222.89 16.4185 222.871 16.3989 222.871 16.3741L222.871 16.3741C222.871 16.3741 222.871 15.4175 222.871 15.4175 222.871 15.3859 222.887 15.3697 222.918 15.3697L223.65 15.3697C223.674 15.3697 223.693 15.35 223.693 15.3261L223.693 15.3261 223.693 14.1987C223.693 14.1585 223.713 14.138 223.753 14.138L224.935 14.138C224.975 14.1372 224.995 14.1577 224.995 14.1978L224.995 15.3047C224.996 15.3483 225.017 15.3697 225.06 15.3697Z" transform="matrix(1 0 0 2.63364 97.1823 455)"/><path d="M117.822 17.9345C118.074 18.8126 119.125 18.8928 119.635 18.2087 119.66 18.1754 119.706 18.1686 119.739 18.1933 119.739 18.1933 119.739 18.1933 119.739 18.1933L120.553 18.7903C120.576 18.8074 120.581 18.8399 120.564 18.8638 120.563 18.8647 120.562 18.8664 120.561 18.8672 119.595 19.9784 117.633 19.9178 116.83 18.6281 116.323 17.8141 116.422 16.7183 117.037 16.0171 117.531 15.4551 118.279 15.2304 119.028 15.2817 120.027 15.3509 120.654 16.1033 120.76 17.0582 120.789 17.3119 120.799 17.569 120.789 17.8303 120.789 17.8525 120.771 17.8696 120.749 17.8696L117.873 17.8679C117.826 17.8679 117.81 17.8901 117.822 17.9345ZM117.838 16.9916 119.486 16.9796C119.493 16.9796 119.498 16.9745 119.498 16.9677L119.498 16.96C119.495 16.5415 119.123 16.205 118.668 16.2084L118.646 16.2084C118.19 16.2118 117.823 16.5534 117.826 16.972L117.826 16.972 117.826 16.9796C117.826 16.9865 117.831 16.9916 117.838 16.9916L117.838 16.9916Z" transform="matrix(1 0 0 2.63364 97.1823 455)"/><path d="M148.225 19.091C147.865 19.7094 146.813 19.7393 146.245 19.5163 145.825 19.3506 145.518 18.9765 145.477 18.523 145.333 16.9523 147.158 16.8712 148.226 16.8917 148.273 16.8917 148.293 16.8695 148.287 16.8225 148.186 16.1136 147.385 16.0307 146.872 16.3032 146.72 16.3843 146.584 16.4877 146.465 16.6149 146.438 16.6431 146.413 16.6431 146.386 16.6158L145.771 15.9889C145.747 15.9641 145.748 15.9257 145.771 15.9026 145.772 15.9018 145.774 15.9001 145.775 15.8992 146.22 15.5242 146.745 15.3184 147.351 15.2817 148.855 15.1903 149.472 15.8471 149.478 17.3341 149.482 18.0627 149.482 18.7835 149.48 19.4976 149.48 19.5309 149.464 19.5471 149.43 19.5471L148.323 19.5471C148.302 19.5471 148.285 19.53 148.285 19.5087L148.28 19.1055C148.28 19.0329 148.261 19.0278 148.224 19.091ZM147.869 18.6383C148.202 18.4769 148.337 18.1856 148.275 17.7646 148.27 17.733 148.252 17.7176 148.219 17.7184 147.845 17.7236 146.853 17.6877 146.732 18.1908 146.669 18.4555 146.777 18.6315 147.058 18.7178 147.321 18.7997 147.591 18.7733 147.869 18.6383Z" transform="matrix(1 0 0 2.63364 97.1823 455)"/><path d="M168.173 15.3799C170.264 15.9872 170.288 18.9099 168.183 19.5454 167.085 19.8768 165.757 19.4591 165.288 18.359 165.071 17.8474 165.043 17.3256 165.206 16.7952 165.594 15.5251 166.966 15.0306 168.173 15.3799ZM168.442 17.352C168.445 16.8421 168.035 16.4262 167.525 16.4219L167.343 16.4219C166.833 16.4168 166.417 16.8276 166.412 17.3375L166.412 17.3375C166.412 17.3375 166.411 17.5681 166.411 17.5681 166.407 18.078 166.817 18.494 167.327 18.4982L167.51 18.4982C168.02 18.5034 168.436 18.0925 168.44 17.5826L168.44 17.5826C168.44 17.5826 168.442 17.352 168.442 17.352Z" transform="matrix(1 0 0 2.63364 97.1823 455)"/><path d="M190.567 17.9328C190.836 18.7921 191.867 18.9176 192.376 18.2121 192.402 18.1762 192.452 18.1686 192.487 18.1933 192.487 18.1933 192.487 18.1933 192.487 18.1933L193.288 18.7818C193.329 18.8117 193.332 18.8459 193.298 18.8834 192.805 19.4207 192.189 19.6744 191.451 19.6453 190.326 19.6 189.361 18.8561 189.27 17.7133 189.192 16.7422 189.554 16.0256 190.354 15.5652 190.889 15.2569 191.719 15.1775 192.295 15.3902 193.317 15.7677 193.6 16.8071 193.523 17.8252 193.52 17.8542 193.505 17.8688 193.476 17.8688L190.614 17.8671C190.568 17.8671 190.553 17.8884 190.567 17.932ZM190.574 16.9907 192.226 16.9856C192.235 16.9856 192.242 16.9788 192.242 16.9702L192.242 16.9634C192.241 16.5432 191.868 16.2041 191.41 16.2058 191.41 16.2058 191.41 16.2058 191.409 16.2058L191.385 16.2058C190.927 16.2075 190.558 16.5492 190.559 16.9685L190.559 16.9754C190.559 16.9839 190.566 16.9907 190.574 16.9907Z" transform="matrix(1 0 0 2.63364 97.1823 455)"/><path d="M204.028 18.4965C204.202 18.4846 204.383 18.3607 204.5 18.2309 204.528 18.2002 204.557 18.2002 204.586 18.2301L205.365 19.0483C205.393 19.0782 205.392 19.1064 205.362 19.1346 205.139 19.3395 204.892 19.4771 204.622 19.5479 203.341 19.8845 201.851 19.3062 201.626 17.8688 201.46 16.796 201.951 15.8275 202.966 15.4397 203.727 15.1484 204.733 15.2219 205.349 15.7728 205.39 15.8087 205.39 15.8462 205.354 15.8855L204.594 16.6833C204.567 16.7115 204.54 16.7123 204.512 16.6833 204.229 16.3997 203.883 16.3365 203.474 16.4928 203 16.6747 202.817 17.2205 202.909 17.6809 203.026 18.2711 203.4 18.5427 204.028 18.4957Z" transform="matrix(1 0 0 2.63364 97.1823 455)"/><path d="M208.438 19.0867C207.949 19.8025 206.633 19.817 206.041 19.2575 205.592 18.8322 205.531 18.0345 205.939 17.5519 206.12 17.3375 206.349 17.1889 206.626 17.1043 207.178 16.9369 207.728 16.8678 208.276 16.8968 208.512 16.9096 208.565 16.8165 208.435 16.6192 208.403 16.5705 208.375 16.5278 208.35 16.4902 208.233 16.3134 208.069 16.2084 207.86 16.1759 207.418 16.1067 207.027 16.2485 206.684 16.6021 206.648 16.6406 206.61 16.6406 206.573 16.6021L205.971 15.9838C205.952 15.9633 205.952 15.9308 205.971 15.9103 205.971 15.9103 205.972 15.9103 205.973 15.9094 206.6 15.3355 207.532 15.1826 208.364 15.3227 209.361 15.4909 209.673 16.2818 209.678 17.1863 209.682 17.9209 209.683 18.6879 209.681 19.4873 209.681 19.5266 209.661 19.5462 209.622 19.5462L208.551 19.5462C208.511 19.5471 208.491 19.5274 208.491 19.4873L208.491 19.103C208.491 19.0397 208.473 19.0346 208.438 19.0867ZM208.078 18.6349C208.405 18.4709 208.54 18.1805 208.484 17.7646 208.481 17.7381 208.465 17.7244 208.439 17.7236 208.052 17.7056 206.708 17.7065 206.939 18.4385 207.075 18.8715 207.772 18.7886 208.078 18.6349Z" transform="matrix(1 0 0 2.63364 97.1823 455)"/><path d="M122.756 15.3688C122.785 15.3688 122.809 15.3925 122.809 15.4218L122.809 19.4924C122.809 19.5217 122.785 19.5454 122.756 19.5454L121.568 19.5454C121.539 19.5454 121.515 19.5217 121.515 19.4924L121.515 15.4218C121.515 15.3925 121.539 15.3688 121.568 15.3688Z" transform="matrix(1 0 0 2.63364 97.1823 455)"/><path d="M173.154 19.0321C172.936 19.378 172.61 19.5787 172.173 19.6342 171.429 19.729 170.703 19.4548 170.516 18.6554 170.452 18.3855 170.42 18.1148 170.418 17.8431 170.414 16.9882 170.413 16.1776 170.416 15.4098 170.416 15.3867 170.434 15.3688 170.457 15.3688L171.679 15.3688C171.699 15.3697 171.714 15.385 171.714 15.4047L171.714 17.4725C171.714 17.9448 171.766 18.5256 172.4 18.5085 172.971 18.494 173.135 18.0703 173.141 17.563 173.151 16.8242 173.151 16.1102 173.145 15.4218 173.145 15.3867 173.161 15.3697 173.196 15.3697L174.391 15.3697C174.415 15.3697 174.435 15.3893 174.435 15.4132L174.435 19.495C174.435 19.524 174.412 19.5471 174.383 19.5471L173.276 19.5471C173.222 19.5471 173.195 19.5198 173.196 19.466L173.197 19.044C173.197 18.9894 173.183 18.9851 173.154 19.0321Z" transform="matrix(1 0 0 2.63364 97.1823 455)"/><path d="M200.837 15.3688C200.863 15.3688 200.883 15.3894 200.883 15.4149L200.883 19.501C200.883 19.5264 200.863 19.5471 200.837 19.5471L199.635 19.5471C199.609 19.5471 199.589 19.5264 199.589 19.501L199.589 15.4149C199.589 15.3894 199.609 15.3688 199.635 15.3688Z" transform="matrix(1 0 0 2.63364 97.1823 455)"/><path d="M222.358 15.3688C222.383 15.3688 222.403 15.3887 222.403 15.4132L222.403 19.5027C222.403 19.5272 222.383 19.5471 222.358 19.5471L221.154 19.5471C221.129 19.5471 221.109 19.5272 221.109 19.5027L221.109 15.4132C221.109 15.3887 221.129 15.3688 221.154 15.3688Z" transform="matrix(1 0 0 2.63364 97.1823 455)"/><path d="M228.945 18.0558 229.825 15.4115C229.834 15.3833 229.855 15.3688 229.885 15.3688L231.123 15.3688C231.156 15.3697 231.167 15.385 231.155 15.4166 230.495 17.1129 229.84 18.7921 229.192 20.4533 228.973 21.0136 228.733 21.4415 228.072 21.5577 227.592 21.6422 227.104 21.6132 226.606 21.4722 226.572 21.462 226.551 21.4287 226.556 21.3937L226.71 20.4448C226.716 20.4046 226.739 20.3918 226.777 20.4063 227.141 20.5472 227.777 20.6139 227.998 20.1996 228.095 20.016 228.179 19.823 228.249 19.6197 228.26 19.5881 228.258 19.5573 228.246 19.5274L226.46 15.4166C226.446 15.385 226.456 15.3697 226.49 15.3697L227.795 15.3697C227.826 15.3697 227.848 15.3842 227.859 15.4132L228.889 18.0575C228.908 18.1096 228.927 18.1088 228.945 18.0558Z" transform="matrix(1 0 0 2.63364 97.1823 455)"/></g></svg>